HIERARCHY
ROOT joint_0
{
	OFFSET 0.000000 0.000000 0.000000
	CHANNELS 6 Xposition Yposition Zposition Zrotation Yrotation Xrotation 
	JOINT joint_1
	{
		OFFSET 11.612000 -0.419000 106.198000
		CHANNELS 3 Zrotation Yrotation Xrotation
		JOINT joint_2
		{
			OFFSET -1.708000 -1.022000 97.564090
			CHANNELS 3 Zrotation Yrotation Xrotation
			JOINT joint_3
			{
				OFFSET -4.121000 -1.538000 97.375000
				CHANNELS 3 Zrotation Yrotation Xrotation
				JOINT joint_4
				{
					OFFSET 5.442000 -2.123000 132.795900
					CHANNELS 3 Zrotation Yrotation Xrotation
					JOINT joint_5
					{
						OFFSET 21.935000 0.195000 82.975100
						CHANNELS 3 Zrotation Yrotation Xrotation
						End Site
						{
							OFFSET 0.000000 0.000000 0.000000
						}
					}
				}
				JOINT joint_6
				{
					OFFSET 4.262000 -30.048000 73.899900
					CHANNELS 3 Zrotation Yrotation Xrotation
					JOINT joint_7
					{
						OFFSET 9.731000 -136.810010 -21.963010
						CHANNELS 3 Zrotation Yrotation Xrotation
						JOINT joint_8
						{
							OFFSET 33.360000 -35.709000 -267.597900
							CHANNELS 3 Zrotation Yrotation Xrotation
							JOINT joint_9
							{
								OFFSET 36.156000 -29.759000 -240.558040
								CHANNELS 3 Zrotation Yrotation Xrotation
								End Site
								{
									OFFSET 0.000000 0.000000 0.000000
								}
							}
						}
					}
				}
				JOINT joint_10
				{
					OFFSET 2.027000 27.734000 74.914920
					CHANNELS 3 Zrotation Yrotation Xrotation
					JOINT joint_11
					{
						OFFSET -5.183000 136.784000 -23.604980
						CHANNELS 3 Zrotation Yrotation Xrotation
						JOINT joint_12
						{
							OFFSET 29.806000 37.229000 -267.809940
							CHANNELS 3 Zrotation Yrotation Xrotation
							JOINT joint_13
							{
								OFFSET 36.890000 46.524990 -237.772030
								CHANNELS 3 Zrotation Yrotation Xrotation
								End Site
								{
									OFFSET 0.000000 0.000000 0.000000
								}
							}
						}
					}
				}
			}
		}
	}
	JOINT joint_14
	{
		OFFSET -7.290000 -102.873990 -124.314940
		CHANNELS 3 Zrotation Yrotation Xrotation
		JOINT joint_15
		{
			OFFSET -15.466000 -19.909010 -438.533020
			CHANNELS 3 Zrotation Yrotation Xrotation
			JOINT joint_16
			{
				OFFSET -26.899000 -18.922000 -464.797000
				CHANNELS 3 Zrotation Yrotation Xrotation
				JOINT joint_17
				{
					OFFSET 179.329000 -12.011000 -84.174000
					CHANNELS 3 Zrotation Yrotation Xrotation
					End Site
					{
						OFFSET 0.000000 0.000000 0.000000
					}
				}
			}
		}
	}
	JOINT joint_18
	{
		OFFSET -6.225000 101.546000 -125.479980
		CHANNELS 3 Zrotation Yrotation Xrotation
		JOINT joint_19
		{
			OFFSET -13.973000 7.996000 -438.963010
			CHANNELS 3 Zrotation Yrotation Xrotation
			JOINT joint_20
			{
				OFFSET -44.294000 5.716000 -463.813970
				CHANNELS 3 Zrotation Yrotation Xrotation
				JOINT joint_21
				{
					OFFSET 178.505000 -4.689000 -85.139000
					CHANNELS 3 Zrotation Yrotation Xrotation
					End Site
					{
						OFFSET 0.000000 0.000000 0.000000
					}
				}
			}
		}
	}
}
MOTION
Frames: 14
Frame Time: 0.016667
-3173.103271 975.277344 1119.355957 -0.478357 2.059714 -2.763932 -1.860724 12.522172 -4.458388 -2.139964 -2.109554 0.943850 -2.194061 2.040269 -0.712265 1.707239 -10.726265 -3.731097 0.000000 0.000000 0.000000 -3.239248 -9.206386 -0.109500 -6.237803 -7.266384 -5.688178 9.018922 -82.048513 17.198021 0.000000 0.000000 0.000000 -0.865644 -15.566779 3.285023 5.612570 -7.649401 1.516542 -12.423845 -87.873443 -44.624839 0.000000 0.000000 0.000000 0.096669 3.867476 -0.900874 -0.499101 15.489378 0.437586 0.332722 -4.969553 -0.190499 0.000000 0.000000 0.000000 6.990382 -13.555649 4.611859 8.157551 23.381103 3.404376 10.560443 -8.165527 4.506075 0.000000 0.000000 0.000000 
-3169.317383 978.708313 1121.071045 -0.586876 2.383372 -3.006501 -1.846260 12.685901 -4.785964 -2.170200 -2.095015 1.011127 -2.243377 2.032812 -0.757352 1.735982 -10.502942 -3.804835 0.000000 0.000000 0.000000 -3.125605 -9.685960 -0.142590 -6.399545 -7.573413 -5.313836 8.877944 -81.698892 17.397311 0.000000 0.000000 0.000000 -0.767736 -16.225903 3.382762 4.787072 -8.041223 1.289041 -13.118252 -87.864096 -42.825435 0.000000 0.000000 0.000000 0.292306 3.417617 -0.945096 -0.344037 15.759672 0.587339 0.487365 -3.920205 -0.054623 0.000000 0.000000 0.000000 7.056002 -13.510413 4.549443 8.230074 22.957961 3.557613 10.585758 -7.925738 4.529025 0.000000 0.000000 0.000000 
-3165.570801 981.750916 1122.928955 -0.558032 2.660817 -3.224443 -1.855958 12.858459 -5.090432 -2.220655 -2.097274 1.060158 -2.310686 2.042669 -0.791507 1.737853 -10.164996 -3.839158 0.000000 0.000000 0.000000 -3.070228 -10.270876 -0.151849 -6.663996 -7.926648 -4.994963 8.709784 -81.434015 18.013204 0.000000 0.000000 0.000000 -0.645665 -16.895158 3.528185 4.000696 -8.447330 1.121482 -13.782750 -87.884708 -40.984289 0.000000 0.000000 0.000000 0.391527 3.179442 -0.928944 -0.261621 15.756941 0.673363 0.552420 -2.804648 0.047437 0.000000 0.000000 0.000000 7.088196 -13.365719 4.537234 8.268924 22.415618 3.608148 10.548661 -7.613948 4.528467 0.000000 0.000000 0.000000 
-3161.964355 984.456177 1124.760986 -0.421543 2.917301 -3.417743 -1.878547 13.006707 -5.370956 -2.270833 -2.099439 1.101451 -2.376004 2.051914 -0.822963 1.726523 -9.758497 -3.856546 0.000000 0.000000 0.000000 -3.006402 -10.829134 -0.164105 -6.981393 -8.263264 -4.704534 8.504561 -81.172866 18.792967 0.000000 0.000000 0.000000 -0.488261 -17.592409 3.634261 3.263619 -8.881473 1.032811 -14.410544 -87.737335 -39.221068 0.000000 0.000000 0.000000 0.414070 3.045964 -0.872350 -0.243237 15.625416 0.716685 0.543220 -1.695476 0.117549 0.000000 0.000000 0.000000 7.081476 -13.220753 4.548784 8.270194 21.882844 3.610540 10.474133 -7.260701 4.512071 0.000000 0.000000 0.000000 
-3158.555908 986.831299 1126.469971 -0.183235 3.171224 -3.579700 -1.911322 13.091070 -5.640386 -2.309158 -2.087448 1.147224 -2.428776 2.048868 -0.856729 1.710102 -9.286016 -3.869657 0.000000 0.000000 0.000000 -2.885433 -11.274439 -0.205857 -7.330936 -8.549824 -4.440228 8.251125 -80.851327 19.608836 0.000000 0.000000 0.000000 -0.269943 -18.357854 3.624224 2.605451 -9.364329 1.041236 -14.984011 -87.269871 -37.679696 0.000000 0.000000 0.000000 0.358108 2.968415 -0.783475 -0.294887 15.420988 0.718193 0.455397 -0.635093 0.151171 0.000000 0.000000 0.000000 7.027309 -13.137604 4.564395 8.228103 21.434421 3.593846 10.372217 -6.879664 4.482549 0.000000 0.000000 0.000000 
-3155.309326 988.858521 1128.123047 0.169198 3.413764 -3.708893 -1.958645 13.132758 -5.897661 -2.342882 -2.080711 1.193983 -2.476176 2.050884 -0.891576 1.684271 -8.732802 -3.866841 0.000000 0.000000 0.000000 -2.732410 -11.660177 -0.262612 -7.737318 -8.816955 -4.217732 7.951963 -80.498948 20.565187 0.000000 0.000000 0.000000 0.008980 -19.191972 3.521022 2.025218 -9.890320 1.130072 -15.505493 -86.547935 -36.322827 0.000000 0.000000 0.000000 0.216161 2.986518 -0.653824 -0.421131 15.091688 0.668832 0.280334 0.402903 0.146594 0.000000 0.000000 0.000000 6.928157 -13.078823 4.594720 8.144221 21.022346 3.537417 10.232808 -6.460064 4.436672 0.000000 0.000000 0.000000 
-3152.244141 990.640137 1129.635010 0.584703 3.638286 -3.823663 -2.005025 13.196932 -6.110519 -2.365192 -2.078690 1.232602 -2.511062 2.057142 -0.921691 1.656938 -8.230345 -3.847738 0.000000 0.000000 0.000000 -2.568339 -11.969746 -0.321112 -8.130191 -9.049050 -3.972565 7.652606 -80.156373 21.479373 0.000000 0.000000 0.000000 0.273501 -19.954107 3.388105 1.470074 -10.399130 1.262539 -16.007560 -85.683054 -34.934743 0.000000 0.000000 0.000000 0.039080 3.010102 -0.514327 -0.583684 14.804928 0.625646 0.072037 1.378929 0.124176 0.000000 0.000000 0.000000 6.799379 -13.063887 4.639771 8.034116 20.702216 3.472588 10.084790 -6.046879 4.385075 0.000000 0.000000 0.000000 
-3149.378662 992.233643 1130.942017 1.041629 3.844757 -3.937776 -2.040985 13.334647 -6.253161 -2.370400 -2.088520 1.256890 -2.527345 2.069497 -0.943653 1.634527 -7.866196 -3.818792 0.000000 0.000000 0.000000 -2.406393 -12.184311 -0.383208 -8.454907 -9.231874 -3.646769 7.383232 -79.855221 22.184570 0.000000 0.000000 0.000000 0.480963 -20.558626 3.269637 0.911145 -10.866482 1.400997 -16.505847 -84.728569 -33.392733 0.000000 0.000000 0.000000 -0.148174 2.991290 -0.383003 -0.763934 14.644166 0.629176 -0.141361 2.272918 0.094622 0.000000 0.000000 0.000000 6.644090 -13.121390 4.696726 7.902138 20.526837 3.429427 9.945675 -5.673399 4.333806 0.000000 0.000000 0.000000 
-3146.701416 993.599487 1132.079956 1.561388 4.035738 -4.042809 -2.073035 13.521644 -6.338885 -2.361224 -2.113938 1.272315 -2.528047 2.095007 -0.960693 1.613432 -7.592403 -3.777320 0.000000 0.000000 0.000000 -2.238942 -12.316023 -0.454334 -8.736099 -9.375773 -3.265191 7.128513 -79.576846 22.749715 0.000000 0.000000 0.000000 0.663106 -21.064797 3.142233 0.389748 -11.324343 1.546329 -16.970968 -83.633934 -31.820345 0.000000 0.000000 0.000000 -0.366661 2.966705 -0.248946 -0.978174 14.542620 0.657366 -0.381957 3.099993 0.049696 0.000000 0.000000 0.000000 6.455315 -13.242871 4.763957 7.741949 20.473774 3.396767 9.803696 -5.323959 4.278590 0.000000 0.000000 0.000000 
-3144.217041 994.792419 1133.055054 2.088508 4.196934 -4.137177 -2.097163 13.723631 -6.370261 -2.343887 -2.134704 1.275838 -2.519470 2.115377 -0.970876 1.591190 -7.399856 -3.723205 0.000000 0.000000 0.000000 -2.069004 -12.390197 -0.518021 -8.976003 -9.486604 -2.861787 6.901759 -79.274306 23.326813 0.000000 0.000000 0.000000 0.798548 -21.427422 3.041364 -0.025586 -11.743756 1.722624 -17.346709 -82.494813 -30.307931 0.000000 0.000000 0.000000 -0.579470 2.863412 -0.129711 -1.199148 14.651241 0.706114 -0.612250 3.806188 0.001662 0.000000 0.000000 0.000000 6.259137 -13.379315 4.851635 7.578237 20.497099 3.341196 9.668618 -5.001928 4.224791 0.000000 0.000000 0.000000 
-3141.950439 995.845825 1133.845947 2.590424 4.319137 -4.220116 -2.108889 13.929867 -6.354320 -2.320551 -2.142090 1.270594 -2.503930 2.123362 -0.972487 1.567353 -7.302539 -3.662710 0.000000 0.000000 0.000000 -1.900461 -12.423718 -0.560907 -9.170543 -9.567675 -2.449399 6.711881 -78.867457 24.042642 0.000000 0.000000 0.000000 0.842928 -21.563335 3.006075 -0.295969 -12.095088 1.967906 -17.598665 -81.374035 -28.838309 0.000000 0.000000 0.000000 -0.759673 2.636177 -0.042799 -1.406056 15.065223 0.779925 -0.803398 4.366849 -0.038938 0.000000 0.000000 0.000000 6.072603 -13.509012 4.965436 7.428064 20.581623 3.241765 9.551907 -4.713226 4.177845 0.000000 0.000000 0.000000 
-3139.901367 996.737610 1134.449951 3.089123 4.407528 -4.290442 -2.109227 14.153399 -6.295431 -2.289359 -2.146664 1.262841 -2.479344 2.128101 -0.967868 1.542699 -7.305424 -3.601895 0.000000 0.000000 0.000000 -1.730765 -12.417414 -0.584456 -9.313569 -9.616269 -2.019187 6.552319 -78.353738 24.834719 0.000000 0.000000 0.000000 0.806839 -21.495935 3.023170 -0.437005 -12.402318 2.268047 -17.730183 -80.212462 -27.408132 0.000000 0.000000 0.000000 -0.922468 2.315226 0.013680 -1.610194 15.722671 0.881751 -0.969318 4.808759 -0.076141 0.000000 0.000000 0.000000 5.885015 -13.650429 5.097930 7.282190 20.744238 3.112152 9.451190 -4.454513 4.136385 0.000000 0.000000 0.000000 
-3137.970215 997.495789 1134.988037 3.560628 4.450218 -4.344955 -2.095670 14.361167 -6.187413 -2.258321 -2.158445 1.240099 -2.451721 2.139337 -0.954485 1.510025 -7.327178 -3.519208 0.000000 0.000000 0.000000 -1.571464 -12.389425 -0.575747 -9.418779 -9.639208 -1.617536 6.428115 -77.912983 25.565551 0.000000 0.000000 0.000000 0.797853 -21.455612 3.024190 -0.470430 -12.721995 2.552468 -17.755971 -79.004330 -26.274467 0.000000 0.000000 0.000000 -1.072169 1.890905 0.044910 -1.817263 16.653956 0.992084 -1.115058 5.104732 -0.114022 0.000000 0.000000 0.000000 5.697657 -13.744168 5.244664 7.136937 20.917608 2.953640 9.346888 -4.214657 4.092705 0.000000 0.000000 0.000000 
-3136.095215 998.156250 1135.547974 3.980230 4.433777 -4.384412 -2.060087 14.537625 -6.027114 -2.231874 -2.192479 1.194454 -2.424923 2.170296 -0.926604 1.465375 -7.320933 -3.395071 0.000000 0.000000 0.000000 -1.415785 -12.312169 -0.517343 -9.511448 -9.624953 -1.305071 6.343402 -77.746896 26.145820 0.000000 0.000000 0.000000 0.915025 -21.600456 2.951281 -0.424962 -13.085967 2.786091 -17.715244 -77.765567 -25.614176 0.000000 0.000000 0.000000 -1.222645 1.344303 0.056094 -2.043498 17.926756 1.086430 -1.260690 5.309548 -0.156988 0.000000 0.000000 0.000000 5.508710 -13.745782 5.413876 6.988565 21.062959 2.754375 9.222955 -3.987704 4.040125 0.000000 0.000000 0.000000 
